<mxfile host="65bd71144e">
    <diagram id="S3_F3bIYdUqPTJyHevy4" name="Page-1">
        <mxGraphModel dx="4723" dy="2117" grid="1" gridSize="10" guides="1" tooltips="1" connect="1" arrows="1" fold="1" page="1" pageScale="1" pageWidth="827" pageHeight="1169" math="0" shadow="0">
            <root>
                <mxCell id="0"/>
                <mxCell id="1" parent="0"/>
                <mxCell id="3" value="&lt;span style=&quot;color: rgb(52 , 73 , 94) ; font-family: , sans-serif ; font-size: 15px ; text-align: left ; background-color: rgb(244 , 245 , 246)&quot;&gt;220 Î©&lt;/span&gt;" style="text;html=1;align=center;verticalAlign=middle;whiteSpace=wrap;rounded=0;" parent="1" vertex="1">
                    <mxGeometry x="220" y="1002" width="50" height="20" as="geometry"/>
                </mxCell>
                <mxCell id="222" style="edgeStyle=none;rounded=0;html=1;endArrow=none;endFill=0;strokeColor=#000000;entryX=0;entryY=0.5;entryDx=0;entryDy=0;" parent="1" source="4" target="5" edge="1">
                    <mxGeometry relative="1" as="geometry">
                        <mxPoint x="780" y="740" as="targetPoint"/>
                        <Array as="points">
                            <mxPoint x="640" y="982"/>
                            <mxPoint x="640" y="520"/>
                            <mxPoint x="742" y="520"/>
                        </Array>
                    </mxGeometry>
                </mxCell>
                <mxCell id="4" value="" style="pointerEvents=1;verticalLabelPosition=bottom;shadow=0;dashed=0;align=center;html=1;verticalAlign=top;shape=mxgraph.electrical.resistors.resistor_2;" parent="1" vertex="1">
                    <mxGeometry x="210" y="972" width="70" height="20" as="geometry"/>
                </mxCell>
                <mxCell id="137" style="edgeStyle=none;rounded=0;html=1;entryX=1;entryY=0.115;entryDx=0;entryDy=0;entryPerimeter=0;endArrow=none;endFill=0;exitX=1;exitY=0.5;exitDx=0;exitDy=0;strokeColor=#CC0000;" parent="1" source="5" target="12" edge="1">
                    <mxGeometry relative="1" as="geometry">
                        <Array as="points">
                            <mxPoint x="742" y="360"/>
                            <mxPoint x="560" y="360"/>
                            <mxPoint x="560" y="402"/>
                        </Array>
                    </mxGeometry>
                </mxCell>
                <mxCell id="138" style="edgeStyle=none;rounded=0;html=1;entryX=1;entryY=0.115;entryDx=0;entryDy=0;entryPerimeter=0;endArrow=none;endFill=0;exitX=1;exitY=0.5;exitDx=0;exitDy=0;strokeColor=#CC0000;" parent="1" source="5" target="44" edge="1">
                    <mxGeometry relative="1" as="geometry">
                        <Array as="points">
                            <mxPoint x="742" y="360"/>
                            <mxPoint x="560" y="360"/>
                            <mxPoint x="560" y="483"/>
                        </Array>
                    </mxGeometry>
                </mxCell>
                <mxCell id="139" style="edgeStyle=none;rounded=0;html=1;entryX=1;entryY=0.885;entryDx=0;entryDy=0;entryPerimeter=0;endArrow=none;endFill=0;exitX=0;exitY=0.5;exitDx=0;exitDy=0;" parent="1" source="5" target="44" edge="1">
                    <mxGeometry relative="1" as="geometry">
                        <Array as="points">
                            <mxPoint x="742" y="520"/>
                            <mxPoint x="520" y="520"/>
                            <mxPoint x="520" y="503"/>
                        </Array>
                    </mxGeometry>
                </mxCell>
                <mxCell id="140" style="edgeStyle=none;rounded=0;html=1;entryX=1;entryY=0.885;entryDx=0;entryDy=0;entryPerimeter=0;endArrow=none;endFill=0;exitX=0;exitY=0.5;exitDx=0;exitDy=0;" parent="1" source="5" target="12" edge="1">
                    <mxGeometry relative="1" as="geometry">
                        <Array as="points">
                            <mxPoint x="742" y="520"/>
                            <mxPoint x="520" y="520"/>
                            <mxPoint x="520" y="423"/>
                        </Array>
                    </mxGeometry>
                </mxCell>
                <mxCell id="206" style="edgeStyle=none;rounded=0;html=1;entryX=1;entryY=0.115;entryDx=0;entryDy=0;entryPerimeter=0;endArrow=none;endFill=0;strokeColor=#CC0000;" parent="1" target="188" edge="1">
                    <mxGeometry relative="1" as="geometry">
                        <mxPoint x="742" y="400" as="sourcePoint"/>
                        <Array as="points">
                            <mxPoint x="742" y="360"/>
                            <mxPoint x="560" y="360"/>
                            <mxPoint x="560" y="782"/>
                        </Array>
                    </mxGeometry>
                </mxCell>
                <mxCell id="207" style="edgeStyle=none;rounded=0;html=1;entryX=1;entryY=0.115;entryDx=0;entryDy=0;entryPerimeter=0;endArrow=none;endFill=0;strokeColor=#CC0000;" parent="1" source="5" target="191" edge="1">
                    <mxGeometry relative="1" as="geometry">
                        <Array as="points">
                            <mxPoint x="742" y="360"/>
                            <mxPoint x="560" y="360"/>
                            <mxPoint x="560" y="863"/>
                        </Array>
                    </mxGeometry>
                </mxCell>
                <mxCell id="208" style="edgeStyle=none;rounded=0;html=1;entryX=1;entryY=0.885;entryDx=0;entryDy=0;entryPerimeter=0;endArrow=none;endFill=0;strokeColor=#000000;exitX=0;exitY=0.5;exitDx=0;exitDy=0;" parent="1" source="5" target="188" edge="1">
                    <mxGeometry relative="1" as="geometry">
                        <Array as="points">
                            <mxPoint x="742" y="520"/>
                            <mxPoint x="640" y="520"/>
                            <mxPoint x="640" y="803"/>
                        </Array>
                    </mxGeometry>
                </mxCell>
                <mxCell id="209" style="edgeStyle=none;rounded=0;html=1;entryX=1;entryY=0.885;entryDx=0;entryDy=0;entryPerimeter=0;endArrow=none;endFill=0;strokeColor=#000000;exitX=0;exitY=0.5;exitDx=0;exitDy=0;" parent="1" source="5" target="191" edge="1">
                    <mxGeometry relative="1" as="geometry">
                        <Array as="points">
                            <mxPoint x="742" y="520"/>
                            <mxPoint x="640" y="520"/>
                            <mxPoint x="640" y="800"/>
                            <mxPoint x="640" y="883"/>
                        </Array>
                    </mxGeometry>
                </mxCell>
                <mxCell id="228" style="edgeStyle=none;html=1;entryX=1;entryY=0.115;entryDx=0;entryDy=0;entryPerimeter=0;rounded=0;endArrow=none;endFill=0;strokeColor=#CC0000;exitX=1;exitY=0.5;exitDx=0;exitDy=0;" edge="1" parent="1" source="5" target="227">
                    <mxGeometry relative="1" as="geometry">
                        <Array as="points">
                            <mxPoint x="742" y="360"/>
                            <mxPoint x="560" y="360"/>
                            <mxPoint x="560" y="203"/>
                        </Array>
                    </mxGeometry>
                </mxCell>
                <mxCell id="229" style="edgeStyle=none;rounded=0;html=1;entryX=1;entryY=0.885;entryDx=0;entryDy=0;entryPerimeter=0;endArrow=none;endFill=0;strokeColor=#000000;exitX=0;exitY=0.5;exitDx=0;exitDy=0;" edge="1" parent="1" source="5" target="227">
                    <mxGeometry relative="1" as="geometry">
                        <Array as="points">
                            <mxPoint x="742" y="520"/>
                            <mxPoint x="800" y="520"/>
                            <mxPoint x="800" y="223"/>
                        </Array>
                    </mxGeometry>
                </mxCell>
                <mxCell id="5" value="" style="pointerEvents=1;verticalLabelPosition=bottom;shadow=0;dashed=0;align=center;html=1;verticalAlign=top;shape=mxgraph.electrical.miscellaneous.batteryStack;direction=south;rotation=-180;" parent="1" vertex="1">
                    <mxGeometry x="722" y="400" width="40" height="80" as="geometry"/>
                </mxCell>
                <mxCell id="6" value="&lt;span style=&quot;color: rgb(52 , 73 , 94) ; font-family: , sans-serif ; font-size: 15px ; text-align: left ; background-color: rgb(244 , 245 , 246)&quot;&gt;+&lt;/span&gt;" style="text;html=1;strokeColor=none;fillColor=none;align=center;verticalAlign=middle;whiteSpace=wrap;rounded=0;" parent="1" vertex="1">
                    <mxGeometry x="760" y="380" width="20" height="20" as="geometry"/>
                </mxCell>
                <mxCell id="7" value="&lt;div style=&quot;text-align: left&quot;&gt;&lt;font color=&quot;#34495e&quot;&gt;&lt;span style=&quot;font-size: 15px ; background-color: rgb(244 , 245 , 246)&quot;&gt;-&lt;/span&gt;&lt;/font&gt;&lt;/div&gt;" style="text;html=1;strokeColor=none;fillColor=none;align=center;verticalAlign=middle;whiteSpace=wrap;rounded=0;" parent="1" vertex="1">
                    <mxGeometry x="750" y="470" width="20" height="20" as="geometry"/>
                </mxCell>
                <mxCell id="11" value="&lt;div style=&quot;text-align: left&quot;&gt;&lt;span style=&quot;background-color: rgb(244 , 245 , 246) ; font-size: 15px ; color: rgb(52 , 73 , 94)&quot;&gt;Unit4-20&lt;/span&gt;&lt;/div&gt;" style="text;html=1;strokeColor=none;fillColor=none;align=center;verticalAlign=middle;whiteSpace=wrap;rounded=0;" parent="1" vertex="1">
                    <mxGeometry x="160" y="120" width="70" height="30" as="geometry"/>
                </mxCell>
                <mxCell id="133" style="edgeStyle=none;html=1;entryX=0;entryY=0.75;entryDx=0;entryDy=0;entryPerimeter=0;exitX=0;exitY=0.885;exitDx=0;exitDy=0;exitPerimeter=0;rounded=0;endArrow=none;endFill=0;strokeColor=#3333FF;" parent="1" source="12" target="110" edge="1">
                    <mxGeometry relative="1" as="geometry">
                        <Array as="points">
                            <mxPoint x="380" y="423"/>
                            <mxPoint x="220" y="423"/>
                            <mxPoint x="220" y="490"/>
                        </Array>
                    </mxGeometry>
                </mxCell>
                <mxCell id="134" style="edgeStyle=none;html=1;entryX=0;entryY=0.75;entryDx=0;entryDy=0;entryPerimeter=0;rounded=0;endArrow=none;endFill=0;exitX=0;exitY=0.885;exitDx=0;exitDy=0;exitPerimeter=0;strokeColor=#0000FF;" parent="1" source="12" target="109" edge="1">
                    <mxGeometry relative="1" as="geometry">
                        <Array as="points">
                            <mxPoint x="380" y="423"/>
                            <mxPoint x="220" y="423"/>
                            <mxPoint x="220" y="370"/>
                        </Array>
                    </mxGeometry>
                </mxCell>
                <mxCell id="12" value="" style="pointerEvents=1;verticalLabelPosition=bottom;shadow=0;dashed=0;align=center;html=1;verticalAlign=top;shape=mxgraph.electrical.electro-mechanical.2-way_switch;direction=west;rotation=-180;" parent="1" vertex="1">
                    <mxGeometry x="404.75" y="399.5" width="75" height="26" as="geometry"/>
                </mxCell>
                <mxCell id="15" value="&lt;div style=&quot;text-align: left&quot;&gt;&lt;font color=&quot;#34495e&quot;&gt;&lt;span style=&quot;font-size: 15px ; background-color: rgb(244 , 245 , 246)&quot;&gt;&amp;nbsp; &amp;nbsp; &amp;nbsp; &amp;nbsp; &amp;nbsp; &amp;nbsp; &amp;nbsp; &amp;nbsp; &amp;nbsp; &amp;nbsp; &amp;nbsp; &amp;nbsp; &amp;nbsp; &amp;nbsp; &amp;nbsp; &amp;nbsp; &amp;nbsp; &amp;nbsp; &amp;nbsp; &amp;nbsp; &amp;nbsp; &amp;nbsp; &amp;nbsp; &amp;nbsp; &amp;nbsp; &amp;nbsp;2-Bit Full Adder&lt;/span&gt;&lt;/font&gt;&lt;/div&gt;&lt;div style=&quot;text-align: left&quot;&gt;&lt;font color=&quot;#34495e&quot;&gt;&lt;span style=&quot;font-size: 15px ; background-color: rgb(244 , 245 , 246)&quot;&gt;&amp;nbsp;A 2's | A 1's | + |&lt;/span&gt;&lt;/font&gt;&lt;span style=&quot;color: rgb(52 , 73 , 94) ; font-size: 15px ; background-color: rgb(244 , 245 , 246)&quot;&gt;&amp;nbsp;B 2's | B 1's | S &lt;/span&gt;&lt;font color=&quot;#34495e&quot;&gt;&lt;span style=&quot;font-size: 15px ; background-color: rgb(244 , 245 , 246)&quot;&gt;|| Carry OUT | Sum2 | Sum1 | Decimal Equivalent |&lt;/span&gt;&lt;/font&gt;&lt;/div&gt;&lt;div style=&quot;text-align: left&quot;&gt;&lt;font color=&quot;#34495e&quot;&gt;&lt;span style=&quot;font-size: 15px ; background-color: rgb(244 , 245 , 246)&quot;&gt;&amp;nbsp; &amp;nbsp; 0&amp;nbsp; &amp;nbsp; |&amp;nbsp; &amp;nbsp; 0&amp;nbsp; &amp;nbsp; | + |&amp;nbsp; &amp;nbsp; 0&amp;nbsp; &amp;nbsp; |&amp;nbsp; &amp;nbsp; 0&amp;nbsp; &amp;nbsp; | 0&amp;nbsp; ||&amp;nbsp; &amp;nbsp; &amp;nbsp; &amp;nbsp; &amp;nbsp;0&amp;nbsp; &amp;nbsp; &amp;nbsp; &amp;nbsp; &amp;nbsp;|&amp;nbsp; &amp;nbsp; &amp;nbsp;0&amp;nbsp; &amp;nbsp; &amp;nbsp;|&amp;nbsp; &amp;nbsp; &amp;nbsp;0&amp;nbsp; &amp;nbsp; |&amp;nbsp; &amp;nbsp; &amp;nbsp; &amp;nbsp; &amp;nbsp;0 + 0 = 0&amp;nbsp; &amp;nbsp; &amp;nbsp; &amp;nbsp; &amp;nbsp; | X&lt;/span&gt;&lt;/font&gt;&lt;/div&gt;&lt;div style=&quot;text-align: left&quot;&gt;&lt;span style=&quot;color: rgb(52 , 73 , 94) ; font-size: 15px ; background-color: rgb(244 , 245 , 246)&quot;&gt;&amp;nbsp; &amp;nbsp; 0&amp;nbsp; &amp;nbsp; |&amp;nbsp; &amp;nbsp; 0&amp;nbsp; &amp;nbsp; | + |&amp;nbsp; &amp;nbsp; 0&amp;nbsp; &amp;nbsp; |&amp;nbsp; &amp;nbsp; 1&amp;nbsp; &amp;nbsp; | 0&amp;nbsp; ||&amp;nbsp; &amp;nbsp; &amp;nbsp; &amp;nbsp; &amp;nbsp;0&amp;nbsp; &amp;nbsp; &amp;nbsp; &amp;nbsp; &amp;nbsp;|&amp;nbsp; &amp;nbsp; &amp;nbsp;0&amp;nbsp; &amp;nbsp; &amp;nbsp;|&amp;nbsp; &amp;nbsp; &amp;nbsp;1&amp;nbsp; &amp;nbsp; |&amp;nbsp; &amp;nbsp; &amp;nbsp; &amp;nbsp; &amp;nbsp;0 + 1 = 1&amp;nbsp; &amp;nbsp; &amp;nbsp; &amp;nbsp; &amp;nbsp; | X&lt;/span&gt;&lt;/div&gt;&lt;div style=&quot;text-align: left&quot;&gt;&lt;span style=&quot;color: rgb(52 , 73 , 94) ; font-size: 15px ; background-color: rgb(244 , 245 , 246)&quot;&gt;&amp;nbsp; &amp;nbsp; 0&amp;nbsp; &amp;nbsp; |&amp;nbsp; &amp;nbsp; 0&amp;nbsp; &amp;nbsp; | + |&amp;nbsp; &amp;nbsp; 1&amp;nbsp; &amp;nbsp; |&amp;nbsp; &amp;nbsp; 0&amp;nbsp; &amp;nbsp; | 0&amp;nbsp; ||&amp;nbsp; &amp;nbsp; &amp;nbsp; &amp;nbsp; &amp;nbsp;0&amp;nbsp; &amp;nbsp; &amp;nbsp; &amp;nbsp; &amp;nbsp;|&amp;nbsp; &amp;nbsp; &amp;nbsp;1&amp;nbsp; &amp;nbsp; &amp;nbsp;|&amp;nbsp; &amp;nbsp; &amp;nbsp;0&amp;nbsp; &amp;nbsp; |&amp;nbsp; &amp;nbsp; &amp;nbsp; &amp;nbsp; &amp;nbsp;0 + (-2) = -2&amp;nbsp; &amp;nbsp; &amp;nbsp;| X&lt;/span&gt;&lt;/div&gt;&lt;div style=&quot;text-align: left&quot;&gt;&lt;span style=&quot;color: rgb(52 , 73 , 94) ; font-size: 15px ; background-color: rgb(244 , 245 , 246)&quot;&gt;&amp;nbsp; &amp;nbsp; 0&amp;nbsp; &amp;nbsp; |&amp;nbsp; &amp;nbsp; 0&amp;nbsp; &amp;nbsp; | + |&amp;nbsp; &amp;nbsp; 1&amp;nbsp; &amp;nbsp; |&amp;nbsp; &amp;nbsp; 1&amp;nbsp; &amp;nbsp; | 0&amp;nbsp; ||&amp;nbsp; &amp;nbsp; &amp;nbsp; &amp;nbsp; &amp;nbsp;0&amp;nbsp; &amp;nbsp; &amp;nbsp; &amp;nbsp; &amp;nbsp;|&amp;nbsp; &amp;nbsp; &amp;nbsp;1&amp;nbsp; &amp;nbsp; &amp;nbsp;|&amp;nbsp; &amp;nbsp; &amp;nbsp;1&amp;nbsp; &amp;nbsp; |&amp;nbsp; &amp;nbsp; &amp;nbsp; &amp;nbsp; &amp;nbsp;0 + (-1) = -1&amp;nbsp; &amp;nbsp; &amp;nbsp;| X&lt;/span&gt;&lt;span style=&quot;color: rgb(52 , 73 , 94) ; font-size: 15px ; background-color: rgb(244 , 245 , 246)&quot;&gt;&lt;br&gt;&lt;/span&gt;&lt;/div&gt;&lt;div style=&quot;text-align: left&quot;&gt;&lt;span style=&quot;color: rgb(52 , 73 , 94) ; font-size: 15px ; background-color: rgb(244 , 245 , 246)&quot;&gt;&amp;nbsp; &amp;nbsp; 0&amp;nbsp; &amp;nbsp; |&amp;nbsp; &amp;nbsp; 1&amp;nbsp; &amp;nbsp; | + |&amp;nbsp; &amp;nbsp; 0&amp;nbsp; &amp;nbsp; |&amp;nbsp; &amp;nbsp; 0&amp;nbsp; &amp;nbsp; | 0&amp;nbsp; ||&amp;nbsp; &amp;nbsp; &amp;nbsp; &amp;nbsp; &amp;nbsp;0&amp;nbsp; &amp;nbsp; &amp;nbsp; &amp;nbsp; &amp;nbsp;|&amp;nbsp; &amp;nbsp; &amp;nbsp;0&amp;nbsp; &amp;nbsp; &amp;nbsp;|&amp;nbsp; &amp;nbsp; &amp;nbsp;1&amp;nbsp; &amp;nbsp; |&amp;nbsp; &amp;nbsp; &amp;nbsp; &amp;nbsp; &amp;nbsp;1 + 0 = 1&amp;nbsp; &amp;nbsp; &amp;nbsp; &amp;nbsp; &amp;nbsp; | X&lt;/span&gt;&lt;span style=&quot;color: rgb(52 , 73 , 94) ; font-size: 15px ; background-color: rgb(244 , 245 , 246)&quot;&gt;&lt;br&gt;&lt;/span&gt;&lt;/div&gt;&lt;div style=&quot;text-align: left&quot;&gt;&lt;span style=&quot;color: rgb(52 , 73 , 94) ; font-size: 15px ; background-color: rgb(244 , 245 , 246)&quot;&gt;&amp;nbsp; &amp;nbsp; 0&amp;nbsp; &amp;nbsp; |&amp;nbsp; &amp;nbsp; 1&amp;nbsp; &amp;nbsp; | + |&amp;nbsp; &amp;nbsp; 0&amp;nbsp; &amp;nbsp; |&amp;nbsp; &amp;nbsp; 1&amp;nbsp; &amp;nbsp; | 0&amp;nbsp; ||&amp;nbsp; &amp;nbsp; &amp;nbsp; &amp;nbsp; &amp;nbsp;0&amp;nbsp; &amp;nbsp; &amp;nbsp; &amp;nbsp; &amp;nbsp;|&amp;nbsp; &amp;nbsp; &amp;nbsp;1&amp;nbsp; &amp;nbsp; &amp;nbsp;|&amp;nbsp; &amp;nbsp; &amp;nbsp;0&amp;nbsp; &amp;nbsp; |&amp;nbsp; &amp;nbsp; &amp;nbsp; &amp;nbsp; &amp;nbsp;1 + 1 = 2&amp;nbsp; &amp;nbsp; &amp;nbsp; &amp;nbsp; &amp;nbsp; | Overflow&lt;/span&gt;&lt;span style=&quot;color: rgb(52 , 73 , 94) ; font-size: 15px ; background-color: rgb(244 , 245 , 246)&quot;&gt;&lt;br&gt;&lt;/span&gt;&lt;/div&gt;&lt;div style=&quot;text-align: left&quot;&gt;&lt;span style=&quot;color: rgb(52 , 73 , 94) ; font-size: 15px ; background-color: rgb(244 , 245 , 246)&quot;&gt;&amp;nbsp; &amp;nbsp; 0&amp;nbsp; &amp;nbsp; |&amp;nbsp; &amp;nbsp; 1&amp;nbsp; &amp;nbsp; | + |&amp;nbsp; &amp;nbsp; 1&amp;nbsp; &amp;nbsp; |&amp;nbsp; &amp;nbsp; 0&amp;nbsp; &amp;nbsp; | 0&amp;nbsp; ||&amp;nbsp; &amp;nbsp; &amp;nbsp; &amp;nbsp; &amp;nbsp;0&amp;nbsp; &amp;nbsp; &amp;nbsp; &amp;nbsp; &amp;nbsp;|&amp;nbsp; &amp;nbsp; &amp;nbsp;1&amp;nbsp; &amp;nbsp; &amp;nbsp;|&amp;nbsp; &amp;nbsp; &amp;nbsp;1&amp;nbsp; &amp;nbsp; |&amp;nbsp; &amp;nbsp; &amp;nbsp; &amp;nbsp; &amp;nbsp;1 + (-2) = -1&amp;nbsp; &amp;nbsp; &amp;nbsp;| X&lt;/span&gt;&lt;span style=&quot;color: rgb(52 , 73 , 94) ; font-size: 15px ; background-color: rgb(244 , 245 , 246)&quot;&gt;&lt;br&gt;&lt;/span&gt;&lt;/div&gt;&lt;div style=&quot;text-align: left&quot;&gt;&lt;span style=&quot;color: rgb(52 , 73 , 94) ; font-size: 15px ; background-color: rgb(244 , 245 , 246)&quot;&gt;&amp;nbsp; &amp;nbsp; 0&amp;nbsp; &amp;nbsp; |&amp;nbsp; &amp;nbsp; 1&amp;nbsp; &amp;nbsp; | + |&amp;nbsp; &amp;nbsp; 1&amp;nbsp; &amp;nbsp; |&amp;nbsp; &amp;nbsp; 1&amp;nbsp; &amp;nbsp; | 0&amp;nbsp; ||&amp;nbsp; &amp;nbsp; &amp;nbsp; &amp;nbsp; &amp;nbsp;1&amp;nbsp; &amp;nbsp; &amp;nbsp; &amp;nbsp; &amp;nbsp;|&amp;nbsp; &amp;nbsp; &amp;nbsp;0&amp;nbsp; &amp;nbsp; &amp;nbsp;|&amp;nbsp; &amp;nbsp; &amp;nbsp;0&amp;nbsp; &amp;nbsp; |&amp;nbsp; &amp;nbsp; &amp;nbsp; &amp;nbsp; &amp;nbsp;1 + (-1) = 0&amp;nbsp; &amp;nbsp; &amp;nbsp; | X&lt;/span&gt;&lt;span style=&quot;color: rgb(52 , 73 , 94) ; font-size: 15px ; background-color: rgb(244 , 245 , 246)&quot;&gt;&lt;br&gt;&lt;/span&gt;&lt;/div&gt;&lt;div style=&quot;text-align: left&quot;&gt;&lt;span style=&quot;color: rgb(52 , 73 , 94) ; font-size: 15px ; background-color: rgb(244 , 245 , 246)&quot;&gt;&amp;nbsp; &amp;nbsp; 1&amp;nbsp; &amp;nbsp; |&amp;nbsp; &amp;nbsp; 0&amp;nbsp; &amp;nbsp; | + |&amp;nbsp; &amp;nbsp; 0&amp;nbsp; &amp;nbsp; |&amp;nbsp; &amp;nbsp; 0&amp;nbsp; &amp;nbsp; | 0&amp;nbsp; ||&amp;nbsp; &amp;nbsp; &amp;nbsp; &amp;nbsp; &amp;nbsp;0&amp;nbsp; &amp;nbsp; &amp;nbsp; &amp;nbsp; &amp;nbsp;|&amp;nbsp; &amp;nbsp; &amp;nbsp;1&amp;nbsp; &amp;nbsp; &amp;nbsp;|&amp;nbsp; &amp;nbsp; &amp;nbsp;0&amp;nbsp; &amp;nbsp; |&amp;nbsp; &amp;nbsp; &amp;nbsp; &amp;nbsp; &amp;nbsp;(-2) + 0 = -2&amp;nbsp; &amp;nbsp; &amp;nbsp;| X&lt;/span&gt;&lt;span style=&quot;color: rgb(52 , 73 , 94) ; font-size: 15px ; background-color: rgb(244 , 245 , 246)&quot;&gt;&lt;br&gt;&lt;/span&gt;&lt;/div&gt;&lt;div style=&quot;text-align: left&quot;&gt;&lt;span style=&quot;color: rgb(52 , 73 , 94) ; font-size: 15px ; background-color: rgb(244 , 245 , 246)&quot;&gt;&amp;nbsp; &amp;nbsp; 1&amp;nbsp; &amp;nbsp; |&amp;nbsp; &amp;nbsp; 0&amp;nbsp; &amp;nbsp; | + |&amp;nbsp; &amp;nbsp; 0&amp;nbsp; &amp;nbsp; |&amp;nbsp; &amp;nbsp; 1&amp;nbsp; &amp;nbsp; | 0&amp;nbsp; ||&amp;nbsp; &amp;nbsp; &amp;nbsp; &amp;nbsp; &amp;nbsp;0&amp;nbsp; &amp;nbsp; &amp;nbsp; &amp;nbsp; &amp;nbsp;|&amp;nbsp; &amp;nbsp; &amp;nbsp;1&amp;nbsp; &amp;nbsp; &amp;nbsp;|&amp;nbsp; &amp;nbsp; &amp;nbsp;1&amp;nbsp; &amp;nbsp; |&amp;nbsp; &amp;nbsp; &amp;nbsp; &amp;nbsp; &amp;nbsp;(-2) + 1 = -1&amp;nbsp; &amp;nbsp; &amp;nbsp;| X&lt;/span&gt;&lt;span style=&quot;color: rgb(52 , 73 , 94) ; font-size: 15px ; background-color: rgb(244 , 245 , 246)&quot;&gt;&lt;br&gt;&lt;/span&gt;&lt;/div&gt;&lt;div style=&quot;text-align: left&quot;&gt;&lt;span style=&quot;color: rgb(52 , 73 , 94) ; font-size: 15px ; background-color: rgb(244 , 245 , 246)&quot;&gt;&amp;nbsp; &amp;nbsp; 1&amp;nbsp; &amp;nbsp; |&amp;nbsp; &amp;nbsp; 0&amp;nbsp; &amp;nbsp; | + |&amp;nbsp; &amp;nbsp; 1&amp;nbsp; &amp;nbsp; |&amp;nbsp; &amp;nbsp; 0&amp;nbsp; &amp;nbsp; | 0&amp;nbsp; ||&amp;nbsp; &amp;nbsp; &amp;nbsp; &amp;nbsp; &amp;nbsp;1&amp;nbsp; &amp;nbsp; &amp;nbsp; &amp;nbsp; &amp;nbsp;|&amp;nbsp; &amp;nbsp; &amp;nbsp;0&amp;nbsp; &amp;nbsp; &amp;nbsp;|&amp;nbsp; &amp;nbsp; &amp;nbsp;0&amp;nbsp; &amp;nbsp; |&amp;nbsp; &amp;nbsp; &amp;nbsp; &amp;nbsp; &amp;nbsp;(-2) + (-2) = -4 | X&lt;/span&gt;&lt;span style=&quot;color: rgb(52 , 73 , 94) ; font-size: 15px ; background-color: rgb(244 , 245 , 246)&quot;&gt;&lt;br&gt;&lt;/span&gt;&lt;/div&gt;&lt;div style=&quot;text-align: left&quot;&gt;&lt;span style=&quot;color: rgb(52 , 73 , 94) ; font-size: 15px ; background-color: rgb(244 , 245 , 246)&quot;&gt;&amp;nbsp; &amp;nbsp; 1&amp;nbsp; &amp;nbsp; |&amp;nbsp; &amp;nbsp; 0&amp;nbsp; &amp;nbsp; | + |&amp;nbsp; &amp;nbsp; 1&amp;nbsp; &amp;nbsp; |&amp;nbsp; &amp;nbsp; 1&amp;nbsp; &amp;nbsp; | 0&amp;nbsp; ||&amp;nbsp; &amp;nbsp; &amp;nbsp; &amp;nbsp; &amp;nbsp;1&amp;nbsp; &amp;nbsp; &amp;nbsp; &amp;nbsp; &amp;nbsp;|&amp;nbsp; &amp;nbsp; &amp;nbsp;0&amp;nbsp; &amp;nbsp; &amp;nbsp;|&amp;nbsp; &amp;nbsp; &amp;nbsp;1&amp;nbsp; &amp;nbsp; |&amp;nbsp; &amp;nbsp; &amp;nbsp; &amp;nbsp; &amp;nbsp;(-2) + (-1) = -3 | Overflow&lt;/span&gt;&lt;span style=&quot;color: rgb(52 , 73 , 94) ; font-size: 15px ; background-color: rgb(244 , 245 , 246)&quot;&gt;&lt;br&gt;&lt;/span&gt;&lt;/div&gt;&lt;div style=&quot;text-align: left&quot;&gt;&lt;span style=&quot;color: rgb(52 , 73 , 94) ; font-size: 15px ; background-color: rgb(244 , 245 , 246)&quot;&gt;&amp;nbsp; &amp;nbsp; 1&amp;nbsp; &amp;nbsp; |&amp;nbsp; &amp;nbsp; 1&amp;nbsp; &amp;nbsp; | + |&amp;nbsp; &amp;nbsp; 0&amp;nbsp; &amp;nbsp; |&amp;nbsp; &amp;nbsp; 0&amp;nbsp; &amp;nbsp; | 0&amp;nbsp; ||&amp;nbsp; &amp;nbsp; &amp;nbsp; &amp;nbsp; &amp;nbsp;0&amp;nbsp; &amp;nbsp; &amp;nbsp; &amp;nbsp; &amp;nbsp;|&amp;nbsp; &amp;nbsp; &amp;nbsp;1&amp;nbsp; &amp;nbsp; &amp;nbsp;|&amp;nbsp; &amp;nbsp; &amp;nbsp;1&amp;nbsp; &amp;nbsp; |&amp;nbsp; &amp;nbsp; &amp;nbsp; &amp;nbsp; &amp;nbsp;(-1) + 0 = -1&amp;nbsp; &amp;nbsp; &amp;nbsp;| X&lt;/span&gt;&lt;span style=&quot;color: rgb(52 , 73 , 94) ; font-size: 15px ; background-color: rgb(244 , 245 , 246)&quot;&gt;&lt;br&gt;&lt;/span&gt;&lt;/div&gt;&lt;div style=&quot;text-align: left&quot;&gt;&lt;span style=&quot;color: rgb(52 , 73 , 94) ; font-size: 15px ; background-color: rgb(244 , 245 , 246)&quot;&gt;&amp;nbsp; &amp;nbsp; 1&amp;nbsp; &amp;nbsp; |&amp;nbsp; &amp;nbsp; 1&amp;nbsp; &amp;nbsp; | + |&amp;nbsp; &amp;nbsp; 0&amp;nbsp; &amp;nbsp; |&amp;nbsp; &amp;nbsp; 1&amp;nbsp; &amp;nbsp; | 0&amp;nbsp; ||&amp;nbsp; &amp;nbsp; &amp;nbsp; &amp;nbsp; &amp;nbsp;1&amp;nbsp; &amp;nbsp; &amp;nbsp; &amp;nbsp; &amp;nbsp;|&amp;nbsp; &amp;nbsp; &amp;nbsp;0&amp;nbsp; &amp;nbsp; &amp;nbsp;|&amp;nbsp; &amp;nbsp; &amp;nbsp;0&amp;nbsp; &amp;nbsp; |&amp;nbsp; &amp;nbsp; &amp;nbsp; &amp;nbsp; &amp;nbsp;(-1) + 1 = 0&amp;nbsp; &amp;nbsp; &amp;nbsp; | X&lt;/span&gt;&lt;span style=&quot;color: rgb(52 , 73 , 94) ; font-size: 15px ; background-color: rgb(244 , 245 , 246)&quot;&gt;&lt;br&gt;&lt;/span&gt;&lt;/div&gt;&lt;div style=&quot;text-align: left&quot;&gt;&lt;span style=&quot;color: rgb(52 , 73 , 94) ; font-size: 15px ; background-color: rgb(244 , 245 , 246)&quot;&gt;&amp;nbsp; &amp;nbsp; 1&amp;nbsp; &amp;nbsp; |&amp;nbsp; &amp;nbsp; 1&amp;nbsp; &amp;nbsp; | + |&amp;nbsp; &amp;nbsp; 1&amp;nbsp; &amp;nbsp; |&amp;nbsp; &amp;nbsp; 0&amp;nbsp; &amp;nbsp; | 0&amp;nbsp; ||&amp;nbsp; &amp;nbsp; &amp;nbsp; &amp;nbsp; &amp;nbsp;1&amp;nbsp; &amp;nbsp; &amp;nbsp; &amp;nbsp; &amp;nbsp;|&amp;nbsp; &amp;nbsp; &amp;nbsp;0&amp;nbsp; &amp;nbsp; &amp;nbsp;|&amp;nbsp; &amp;nbsp; &amp;nbsp;1&amp;nbsp; &amp;nbsp; |&amp;nbsp; &amp;nbsp; &amp;nbsp; &amp;nbsp; &amp;nbsp;(-1) + (-2) = -3 | Overflow&lt;/span&gt;&lt;span style=&quot;color: rgb(52 , 73 , 94) ; font-size: 15px ; background-color: rgb(244 , 245 , 246)&quot;&gt;&lt;br&gt;&lt;/span&gt;&lt;/div&gt;&lt;div style=&quot;text-align: left&quot;&gt;&lt;span style=&quot;color: rgb(52 , 73 , 94) ; font-size: 15px ; background-color: rgb(244 , 245 , 246)&quot;&gt;&amp;nbsp; &amp;nbsp; 1&amp;nbsp; &amp;nbsp; |&amp;nbsp; &amp;nbsp; 1&amp;nbsp; &amp;nbsp; | + |&amp;nbsp; &amp;nbsp; 1&amp;nbsp; &amp;nbsp; |&amp;nbsp; &amp;nbsp; 1&amp;nbsp; &amp;nbsp; | 0&amp;nbsp; ||&amp;nbsp; &amp;nbsp; &amp;nbsp; &amp;nbsp; &amp;nbsp;1&amp;nbsp; &amp;nbsp; &amp;nbsp; &amp;nbsp; &amp;nbsp;|&amp;nbsp; &amp;nbsp; &amp;nbsp;1&amp;nbsp; &amp;nbsp; &amp;nbsp;|&amp;nbsp; &amp;nbsp; &amp;nbsp;0&amp;nbsp; &amp;nbsp; |&amp;nbsp; &amp;nbsp; &amp;nbsp; &amp;nbsp; &amp;nbsp;(-1) + (-1) = -2 | X&lt;/span&gt;&lt;/div&gt;&lt;div style=&quot;text-align: left&quot;&gt;&lt;div&gt;&lt;font color=&quot;#34495e&quot;&gt;&lt;span style=&quot;font-size: 15px ; background-color: rgb(244 , 245 , 246)&quot;&gt;&amp;nbsp; &amp;nbsp; 0&amp;nbsp; &amp;nbsp; |&amp;nbsp; &amp;nbsp; 0&amp;nbsp; &amp;nbsp; | + |&amp;nbsp; &amp;nbsp; 0&amp;nbsp; &amp;nbsp; |&amp;nbsp; &amp;nbsp; 0&amp;nbsp; &amp;nbsp; | 1&amp;nbsp; ||&amp;nbsp; &amp;nbsp; &amp;nbsp; &amp;nbsp; &amp;nbsp;1&amp;nbsp; &amp;nbsp; &amp;nbsp; &amp;nbsp; &amp;nbsp;|&amp;nbsp; &amp;nbsp; &amp;nbsp;0&amp;nbsp; &amp;nbsp; &amp;nbsp;|&amp;nbsp; &amp;nbsp; &amp;nbsp;0&amp;nbsp; &amp;nbsp; |&amp;nbsp; &amp;nbsp; &amp;nbsp; &amp;nbsp; &amp;nbsp;0 - 0 = 0&amp;nbsp; &amp;nbsp; &amp;nbsp; &amp;nbsp; &amp;nbsp; &amp;nbsp;| X&lt;/span&gt;&lt;/font&gt;&lt;/div&gt;&lt;div&gt;&lt;span style=&quot;color: rgb(52 , 73 , 94) ; font-size: 15px ; background-color: rgb(244 , 245 , 246)&quot;&gt;&amp;nbsp; &amp;nbsp; 0&amp;nbsp; &amp;nbsp; |&amp;nbsp; &amp;nbsp; 0&amp;nbsp; &amp;nbsp; | + |&amp;nbsp; &amp;nbsp; 0&amp;nbsp; &amp;nbsp; |&amp;nbsp; &amp;nbsp; 1&amp;nbsp; &amp;nbsp; | 1&amp;nbsp; ||&amp;nbsp; &amp;nbsp; &amp;nbsp; &amp;nbsp; &amp;nbsp;0&amp;nbsp; &amp;nbsp; &amp;nbsp; &amp;nbsp; &amp;nbsp;|&amp;nbsp; &amp;nbsp; &amp;nbsp;1&amp;nbsp; &amp;nbsp; &amp;nbsp;|&amp;nbsp; &amp;nbsp; &amp;nbsp;1&amp;nbsp; &amp;nbsp; |&amp;nbsp; &amp;nbsp; &amp;nbsp; &amp;nbsp; &amp;nbsp;0 - 1 = -1&amp;nbsp; &amp;nbsp; &amp;nbsp; &amp;nbsp; &amp;nbsp; | X&lt;/span&gt;&lt;/div&gt;&lt;div&gt;&lt;span style=&quot;color: rgb(52 , 73 , 94) ; font-size: 15px ; background-color: rgb(244 , 245 , 246)&quot;&gt;&amp;nbsp; &amp;nbsp; 0&amp;nbsp; &amp;nbsp; |&amp;nbsp; &amp;nbsp; 0&amp;nbsp; &amp;nbsp; | + |&amp;nbsp; &amp;nbsp; 1&amp;nbsp; &amp;nbsp; |&amp;nbsp; &amp;nbsp; 0&amp;nbsp; &amp;nbsp; | 1&amp;nbsp; ||&amp;nbsp; &amp;nbsp; &amp;nbsp; &amp;nbsp; &amp;nbsp;0&amp;nbsp; &amp;nbsp; &amp;nbsp; &amp;nbsp; &amp;nbsp;|&amp;nbsp; &amp;nbsp; &amp;nbsp;1&amp;nbsp; &amp;nbsp; &amp;nbsp;|&amp;nbsp; &amp;nbsp; &amp;nbsp;0&amp;nbsp; &amp;nbsp; |&amp;nbsp; &amp;nbsp; &amp;nbsp; &amp;nbsp; &amp;nbsp;0 - (-2) = 2&amp;nbsp; &amp;nbsp; &amp;nbsp; &amp;nbsp;| Overflow&lt;/span&gt;&lt;/div&gt;&lt;div&gt;&lt;span style=&quot;color: rgb(52 , 73 , 94) ; font-size: 15px ; background-color: rgb(244 , 245 , 246)&quot;&gt;&amp;nbsp; &amp;nbsp; 0&amp;nbsp; &amp;nbsp; |&amp;nbsp; &amp;nbsp; 0&amp;nbsp; &amp;nbsp; | + |&amp;nbsp; &amp;nbsp; 1&amp;nbsp; &amp;nbsp; |&amp;nbsp; &amp;nbsp; 1&amp;nbsp; &amp;nbsp; | 1&amp;nbsp; ||&amp;nbsp; &amp;nbsp; &amp;nbsp; &amp;nbsp; &amp;nbsp;0&amp;nbsp; &amp;nbsp; &amp;nbsp; &amp;nbsp; &amp;nbsp;|&amp;nbsp; &amp;nbsp; &amp;nbsp;0&amp;nbsp; &amp;nbsp; &amp;nbsp;|&amp;nbsp; &amp;nbsp; &amp;nbsp;1&amp;nbsp; &amp;nbsp; |&amp;nbsp; &amp;nbsp; &amp;nbsp; &amp;nbsp; &amp;nbsp;0 - (-1) = 1&amp;nbsp; &amp;nbsp; &amp;nbsp; &amp;nbsp;| X&lt;/span&gt;&lt;span style=&quot;color: rgb(52 , 73 , 94) ; font-size: 15px ; background-color: rgb(244 , 245 , 246)&quot;&gt;&lt;br&gt;&lt;/span&gt;&lt;/div&gt;&lt;div&gt;&lt;span style=&quot;color: rgb(52 , 73 , 94) ; font-size: 15px ; background-color: rgb(244 , 245 , 246)&quot;&gt;&amp;nbsp; &amp;nbsp; 0&amp;nbsp; &amp;nbsp; |&amp;nbsp; &amp;nbsp; 1&amp;nbsp; &amp;nbsp; | + |&amp;nbsp; &amp;nbsp; 0&amp;nbsp; &amp;nbsp; |&amp;nbsp; &amp;nbsp; 0&amp;nbsp; &amp;nbsp; | 1&amp;nbsp; ||&amp;nbsp; &amp;nbsp; &amp;nbsp; &amp;nbsp; &amp;nbsp;1&amp;nbsp; &amp;nbsp; &amp;nbsp; &amp;nbsp; &amp;nbsp;|&amp;nbsp; &amp;nbsp; &amp;nbsp;0&amp;nbsp; &amp;nbsp; &amp;nbsp;|&amp;nbsp; &amp;nbsp; &amp;nbsp;1&amp;nbsp; &amp;nbsp; |&amp;nbsp; &amp;nbsp; &amp;nbsp; &amp;nbsp; &amp;nbsp;1 - 0 = 1&amp;nbsp; &amp;nbsp; &amp;nbsp; &amp;nbsp; &amp;nbsp; &amp;nbsp;| X&lt;/span&gt;&lt;span style=&quot;color: rgb(52 , 73 , 94) ; font-size: 15px ; background-color: rgb(244 , 245 , 246)&quot;&gt;&lt;br&gt;&lt;/span&gt;&lt;/div&gt;&lt;div&gt;&lt;span style=&quot;color: rgb(52 , 73 , 94) ; font-size: 15px ; background-color: rgb(244 , 245 , 246)&quot;&gt;&amp;nbsp; &amp;nbsp; 0&amp;nbsp; &amp;nbsp; |&amp;nbsp; &amp;nbsp; 1&amp;nbsp; &amp;nbsp; | + |&amp;nbsp; &amp;nbsp; 0&amp;nbsp; &amp;nbsp; |&amp;nbsp; &amp;nbsp; 1&amp;nbsp; &amp;nbsp; | 1&amp;nbsp; ||&amp;nbsp; &amp;nbsp; &amp;nbsp; &amp;nbsp; &amp;nbsp;1&amp;nbsp; &amp;nbsp; &amp;nbsp; &amp;nbsp; &amp;nbsp;|&amp;nbsp; &amp;nbsp; &amp;nbsp;0&amp;nbsp; &amp;nbsp; &amp;nbsp;|&amp;nbsp; &amp;nbsp; &amp;nbsp;0&amp;nbsp; &amp;nbsp; |&amp;nbsp; &amp;nbsp; &amp;nbsp; &amp;nbsp; &amp;nbsp;1 - 1 = 0&amp;nbsp; &amp;nbsp; &amp;nbsp; &amp;nbsp; &amp;nbsp; &amp;nbsp;| X&lt;/span&gt;&lt;span style=&quot;color: rgb(52 , 73 , 94) ; font-size: 15px ; background-color: rgb(244 , 245 , 246)&quot;&gt;&lt;br&gt;&lt;/span&gt;&lt;/div&gt;&lt;div&gt;&lt;span style=&quot;color: rgb(52 , 73 , 94) ; font-size: 15px ; background-color: rgb(244 , 245 , 246)&quot;&gt;&amp;nbsp; &amp;nbsp; 0&amp;nbsp; &amp;nbsp; |&amp;nbsp; &amp;nbsp; 1&amp;nbsp; &amp;nbsp; | + |&amp;nbsp; &amp;nbsp; 1&amp;nbsp; &amp;nbsp; |&amp;nbsp; &amp;nbsp; 0&amp;nbsp; &amp;nbsp; | 1&amp;nbsp; ||&amp;nbsp; &amp;nbsp; &amp;nbsp; &amp;nbsp; &amp;nbsp;0&amp;nbsp; &amp;nbsp; &amp;nbsp; &amp;nbsp; &amp;nbsp;|&amp;nbsp; &amp;nbsp; &amp;nbsp;1&amp;nbsp; &amp;nbsp; &amp;nbsp;|&amp;nbsp; &amp;nbsp; &amp;nbsp;1&amp;nbsp; &amp;nbsp; |&amp;nbsp; &amp;nbsp; &amp;nbsp; &amp;nbsp; &amp;nbsp;1 - (-2) = 3&amp;nbsp; &amp;nbsp; &amp;nbsp; &amp;nbsp;| Overflow&lt;/span&gt;&lt;span style=&quot;color: rgb(52 , 73 , 94) ; font-size: 15px ; background-color: rgb(244 , 245 , 246)&quot;&gt;&lt;br&gt;&lt;/span&gt;&lt;/div&gt;&lt;div&gt;&lt;span style=&quot;color: rgb(52 , 73 , 94) ; font-size: 15px ; background-color: rgb(244 , 245 , 246)&quot;&gt;&amp;nbsp; &amp;nbsp; 0&amp;nbsp; &amp;nbsp; |&amp;nbsp; &amp;nbsp; 1&amp;nbsp; &amp;nbsp; | + |&amp;nbsp; &amp;nbsp; 1&amp;nbsp; &amp;nbsp; |&amp;nbsp; &amp;nbsp; 1&amp;nbsp; &amp;nbsp; | 1&amp;nbsp; ||&amp;nbsp; &amp;nbsp; &amp;nbsp; &amp;nbsp; &amp;nbsp;0&amp;nbsp; &amp;nbsp; &amp;nbsp; &amp;nbsp; &amp;nbsp;|&amp;nbsp; &amp;nbsp; &amp;nbsp;1&amp;nbsp; &amp;nbsp; &amp;nbsp;|&amp;nbsp; &amp;nbsp; &amp;nbsp;0&amp;nbsp; &amp;nbsp; |&amp;nbsp; &amp;nbsp; &amp;nbsp; &amp;nbsp; &amp;nbsp;1 - (-1) = 0&amp;nbsp; &amp;nbsp; &amp;nbsp; &amp;nbsp;| X&lt;/span&gt;&lt;span style=&quot;color: rgb(52 , 73 , 94) ; font-size: 15px ; background-color: rgb(244 , 245 , 246)&quot;&gt;&lt;br&gt;&lt;/span&gt;&lt;/div&gt;&lt;div&gt;&lt;span style=&quot;color: rgb(52 , 73 , 94) ; font-size: 15px ; background-color: rgb(244 , 245 , 246)&quot;&gt;&amp;nbsp; &amp;nbsp; 1&amp;nbsp; &amp;nbsp; |&amp;nbsp; &amp;nbsp; 0&amp;nbsp; &amp;nbsp; | + |&amp;nbsp; &amp;nbsp; 0&amp;nbsp; &amp;nbsp; |&amp;nbsp; &amp;nbsp; 0&amp;nbsp; &amp;nbsp; | 1&amp;nbsp; ||&amp;nbsp; &amp;nbsp; &amp;nbsp; &amp;nbsp; &amp;nbsp;1&amp;nbsp; &amp;nbsp; &amp;nbsp; &amp;nbsp; &amp;nbsp;|&amp;nbsp; &amp;nbsp; &amp;nbsp;1&amp;nbsp; &amp;nbsp; &amp;nbsp;|&amp;nbsp; &amp;nbsp; &amp;nbsp;0&amp;nbsp; &amp;nbsp; |&amp;nbsp; &amp;nbsp; &amp;nbsp; &amp;nbsp; &amp;nbsp;(-2) - 0 = -2&amp;nbsp; &amp;nbsp; &amp;nbsp; | X&lt;/span&gt;&lt;span style=&quot;color: rgb(52 , 73 , 94) ; font-size: 15px ; background-color: rgb(244 , 245 , 246)&quot;&gt;&lt;br&gt;&lt;/span&gt;&lt;/div&gt;&lt;div&gt;&lt;span style=&quot;color: rgb(52 , 73 , 94) ; font-size: 15px ; background-color: rgb(244 , 245 , 246)&quot;&gt;&amp;nbsp; &amp;nbsp; 1&amp;nbsp; &amp;nbsp; |&amp;nbsp; &amp;nbsp; 0&amp;nbsp; &amp;nbsp; | + |&amp;nbsp; &amp;nbsp; 0&amp;nbsp; &amp;nbsp; |&amp;nbsp; &amp;nbsp; 1&amp;nbsp; &amp;nbsp; | 1&amp;nbsp; ||&amp;nbsp; &amp;nbsp; &amp;nbsp; &amp;nbsp; &amp;nbsp;1&amp;nbsp; &amp;nbsp; &amp;nbsp; &amp;nbsp; &amp;nbsp;|&amp;nbsp; &amp;nbsp; &amp;nbsp;0&amp;nbsp; &amp;nbsp; &amp;nbsp;|&amp;nbsp; &amp;nbsp; &amp;nbsp;1&amp;nbsp; &amp;nbsp; |&amp;nbsp; &amp;nbsp; &amp;nbsp; &amp;nbsp; &amp;nbsp;(-2) - 1 = -3&amp;nbsp; &amp;nbsp; &amp;nbsp; | Overflow&lt;/span&gt;&lt;span style=&quot;color: rgb(52 , 73 , 94) ; font-size: 15px ; background-color: rgb(244 , 245 , 246)&quot;&gt;&lt;br&gt;&lt;/span&gt;&lt;/div&gt;&lt;div&gt;&lt;span style=&quot;color: rgb(52 , 73 , 94) ; font-size: 15px ; background-color: rgb(244 , 245 , 246)&quot;&gt;&amp;nbsp; &amp;nbsp; 1&amp;nbsp; &amp;nbsp; |&amp;nbsp; &amp;nbsp; 0&amp;nbsp; &amp;nbsp; | + |&amp;nbsp; &amp;nbsp; 1&amp;nbsp; &amp;nbsp; |&amp;nbsp; &amp;nbsp; 0&amp;nbsp; &amp;nbsp; | 1&amp;nbsp; ||&amp;nbsp; &amp;nbsp; &amp;nbsp; &amp;nbsp; &amp;nbsp;1&amp;nbsp; &amp;nbsp; &amp;nbsp; &amp;nbsp; &amp;nbsp;|&amp;nbsp; &amp;nbsp; &amp;nbsp;0&amp;nbsp; &amp;nbsp; &amp;nbsp;|&amp;nbsp; &amp;nbsp; &amp;nbsp;0&amp;nbsp; &amp;nbsp; |&amp;nbsp; &amp;nbsp; &amp;nbsp; &amp;nbsp; &amp;nbsp;(-2) - (-2) = 0&amp;nbsp; &amp;nbsp; | X&lt;/span&gt;&lt;span style=&quot;color: rgb(52 , 73 , 94) ; font-size: 15px ; background-color: rgb(244 , 245 , 246)&quot;&gt;&lt;br&gt;&lt;/span&gt;&lt;/div&gt;&lt;div&gt;&lt;span style=&quot;color: rgb(52 , 73 , 94) ; font-size: 15px ; background-color: rgb(244 , 245 , 246)&quot;&gt;&amp;nbsp; &amp;nbsp; 1&amp;nbsp; &amp;nbsp; |&amp;nbsp; &amp;nbsp; 0&amp;nbsp; &amp;nbsp; | + |&amp;nbsp; &amp;nbsp; 1&amp;nbsp; &amp;nbsp; |&amp;nbsp; &amp;nbsp; 1&amp;nbsp; &amp;nbsp; | 1&amp;nbsp; ||&amp;nbsp; &amp;nbsp; &amp;nbsp; &amp;nbsp; &amp;nbsp;0&amp;nbsp; &amp;nbsp; &amp;nbsp; &amp;nbsp; &amp;nbsp;|&amp;nbsp; &amp;nbsp; &amp;nbsp;1&amp;nbsp; &amp;nbsp; &amp;nbsp;|&amp;nbsp; &amp;nbsp; &amp;nbsp;1&amp;nbsp; &amp;nbsp; |&amp;nbsp; &amp;nbsp; &amp;nbsp; &amp;nbsp; &amp;nbsp;(-2) - (-1) = -1&amp;nbsp; &amp;nbsp;| X&lt;/span&gt;&lt;span style=&quot;color: rgb(52 , 73 , 94) ; font-size: 15px ; background-color: rgb(244 , 245 , 246)&quot;&gt;&lt;br&gt;&lt;/span&gt;&lt;/div&gt;&lt;div&gt;&lt;span style=&quot;color: rgb(52 , 73 , 94) ; font-size: 15px ; background-color: rgb(244 , 245 , 246)&quot;&gt;&amp;nbsp; &amp;nbsp; 1&amp;nbsp; &amp;nbsp; |&amp;nbsp; &amp;nbsp; 1&amp;nbsp; &amp;nbsp; | + |&amp;nbsp; &amp;nbsp; 0&amp;nbsp; &amp;nbsp; |&amp;nbsp; &amp;nbsp; 0&amp;nbsp; &amp;nbsp; | 1&amp;nbsp; ||&amp;nbsp; &amp;nbsp; &amp;nbsp; &amp;nbsp; &amp;nbsp;1&amp;nbsp; &amp;nbsp; &amp;nbsp; &amp;nbsp; &amp;nbsp;|&amp;nbsp; &amp;nbsp; &amp;nbsp;1&amp;nbsp; &amp;nbsp; &amp;nbsp;|&amp;nbsp; &amp;nbsp; &amp;nbsp;1&amp;nbsp; &amp;nbsp; |&amp;nbsp; &amp;nbsp; &amp;nbsp; &amp;nbsp; &amp;nbsp;(-1) - 0 = -1&amp;nbsp; &amp;nbsp; &amp;nbsp; | X&lt;/span&gt;&lt;span style=&quot;color: rgb(52 , 73 , 94) ; font-size: 15px ; background-color: rgb(244 , 245 , 246)&quot;&gt;&lt;br&gt;&lt;/span&gt;&lt;/div&gt;&lt;div&gt;&lt;span style=&quot;color: rgb(52 , 73 , 94) ; font-size: 15px ; background-color: rgb(244 , 245 , 246)&quot;&gt;&amp;nbsp; &amp;nbsp; 1&amp;nbsp; &amp;nbsp; |&amp;nbsp; &amp;nbsp; 1&amp;nbsp; &amp;nbsp; | + |&amp;nbsp; &amp;nbsp; 0&amp;nbsp; &amp;nbsp; |&amp;nbsp; &amp;nbsp; 1&amp;nbsp; &amp;nbsp; | 1&amp;nbsp; ||&amp;nbsp; &amp;nbsp; &amp;nbsp; &amp;nbsp; &amp;nbsp;1&amp;nbsp; &amp;nbsp; &amp;nbsp; &amp;nbsp; &amp;nbsp;|&amp;nbsp; &amp;nbsp; &amp;nbsp;1&amp;nbsp; &amp;nbsp; &amp;nbsp;|&amp;nbsp; &amp;nbsp; &amp;nbsp;0&amp;nbsp; &amp;nbsp; |&amp;nbsp; &amp;nbsp; &amp;nbsp; &amp;nbsp; &amp;nbsp;(-1) - 1 = -2&amp;nbsp; &amp;nbsp; &amp;nbsp; | X&lt;/span&gt;&lt;span style=&quot;color: rgb(52 , 73 , 94) ; font-size: 15px ; background-color: rgb(244 , 245 , 246)&quot;&gt;&lt;br&gt;&lt;/span&gt;&lt;/div&gt;&lt;div&gt;&lt;span style=&quot;color: rgb(52 , 73 , 94) ; font-size: 15px ; background-color: rgb(244 , 245 , 246)&quot;&gt;&amp;nbsp; &amp;nbsp; 1&amp;nbsp; &amp;nbsp; |&amp;nbsp; &amp;nbsp; 1&amp;nbsp; &amp;nbsp; | + |&amp;nbsp; &amp;nbsp; 1&amp;nbsp; &amp;nbsp; |&amp;nbsp; &amp;nbsp; 0&amp;nbsp; &amp;nbsp; | 1&amp;nbsp; ||&amp;nbsp; &amp;nbsp; &amp;nbsp; &amp;nbsp; &amp;nbsp;1&amp;nbsp; &amp;nbsp; &amp;nbsp; &amp;nbsp; &amp;nbsp;|&amp;nbsp; &amp;nbsp; &amp;nbsp;0&amp;nbsp; &amp;nbsp; &amp;nbsp;|&amp;nbsp; &amp;nbsp; &amp;nbsp;1&amp;nbsp; &amp;nbsp; |&amp;nbsp; &amp;nbsp; &amp;nbsp; &amp;nbsp; &amp;nbsp;(-1) - (-2) = 1&amp;nbsp; &amp;nbsp; | X&lt;/span&gt;&lt;span style=&quot;color: rgb(52 , 73 , 94) ; font-size: 15px ; background-color: rgb(244 , 245 , 246)&quot;&gt;&lt;br&gt;&lt;/span&gt;&lt;/div&gt;&lt;div&gt;&lt;span style=&quot;color: rgb(52 , 73 , 94) ; font-size: 15px ; background-color: rgb(244 , 245 , 246)&quot;&gt;&amp;nbsp; &amp;nbsp; 1&amp;nbsp; &amp;nbsp; |&amp;nbsp; &amp;nbsp; 1&amp;nbsp; &amp;nbsp; | + |&amp;nbsp; &amp;nbsp; 1&amp;nbsp; &amp;nbsp; |&amp;nbsp; &amp;nbsp; 1&amp;nbsp; &amp;nbsp; | 1&amp;nbsp; ||&amp;nbsp; &amp;nbsp; &amp;nbsp; &amp;nbsp; &amp;nbsp;1&amp;nbsp; &amp;nbsp; &amp;nbsp; &amp;nbsp; &amp;nbsp;|&amp;nbsp; &amp;nbsp; &amp;nbsp;0&amp;nbsp; &amp;nbsp; &amp;nbsp;|&amp;nbsp; &amp;nbsp; &amp;nbsp;0&amp;nbsp; &amp;nbsp; |&amp;nbsp; &amp;nbsp; &amp;nbsp; &amp;nbsp; &amp;nbsp;(-1) - (-1) = 0&amp;nbsp; &amp;nbsp; | X&lt;/span&gt;&lt;/div&gt;&lt;/div&gt;" style="text;html=1;strokeColor=none;fillColor=none;align=center;verticalAlign=middle;whiteSpace=wrap;rounded=0;" parent="1" vertex="1">
                    <mxGeometry x="-850" y="380" width="670" height="651" as="geometry"/>
                </mxCell>
                <mxCell id="42" value="&lt;div style=&quot;text-align: left&quot;&gt;&lt;font color=&quot;#34495e&quot;&gt;&lt;span style=&quot;font-size: 15px ; background-color: rgb(244 , 245 , 246)&quot;&gt;2-Bit Full Adder/ Subtractor&lt;/span&gt;&lt;/font&gt;&lt;/div&gt;" style="text;html=1;strokeColor=none;fillColor=none;align=center;verticalAlign=middle;whiteSpace=wrap;rounded=0;" parent="1" vertex="1">
                    <mxGeometry x="-50" y="120" width="190" height="30" as="geometry"/>
                </mxCell>
                <mxCell id="43" value="&lt;div style=&quot;text-align: left&quot;&gt;&lt;font color=&quot;#34495e&quot;&gt;&lt;span style=&quot;font-size: 15px ; background-color: rgb(244 , 245 , 246)&quot;&gt;Sum1&lt;/span&gt;&lt;/font&gt;&lt;/div&gt;" style="text;html=1;strokeColor=none;fillColor=none;align=center;verticalAlign=middle;whiteSpace=wrap;rounded=0;" parent="1" vertex="1">
                    <mxGeometry x="49" y="1002" width="62" height="20" as="geometry"/>
                </mxCell>
                <mxCell id="230" style="edgeStyle=none;rounded=0;html=1;entryX=0;entryY=0.25;entryDx=0;entryDy=0;entryPerimeter=0;endArrow=none;endFill=0;strokeColor=#FFFF33;exitX=0;exitY=0.885;exitDx=0;exitDy=0;exitPerimeter=0;" edge="1" parent="1" source="44" target="225">
                    <mxGeometry relative="1" as="geometry">
                        <Array as="points">
                            <mxPoint x="380" y="503"/>
                            <mxPoint x="380" y="510"/>
                        </Array>
                    </mxGeometry>
                </mxCell>
                <mxCell id="44" value="" style="pointerEvents=1;verticalLabelPosition=bottom;shadow=0;dashed=0;align=center;html=1;verticalAlign=top;shape=mxgraph.electrical.electro-mechanical.2-way_switch;direction=west;rotation=-180;" parent="1" vertex="1">
                    <mxGeometry x="404.75" y="480" width="75" height="26" as="geometry"/>
                </mxCell>
                <mxCell id="47" value="&lt;div style=&quot;text-align: left&quot;&gt;&lt;font color=&quot;#34495e&quot;&gt;&lt;span style=&quot;font-size: 15px ; background-color: rgb(244 , 245 , 246)&quot;&gt;Input B1&lt;/span&gt;&lt;/font&gt;&lt;/div&gt;" style="text;html=1;strokeColor=none;fillColor=none;align=center;verticalAlign=middle;whiteSpace=wrap;rounded=0;" parent="1" vertex="1">
                    <mxGeometry x="423.25" y="454" width="66.75" height="26" as="geometry"/>
                </mxCell>
                <mxCell id="219" style="edgeStyle=none;rounded=0;html=1;entryX=0;entryY=0.5;entryDx=0;entryDy=0;entryPerimeter=0;endArrow=none;endFill=0;strokeColor=#000000;exitX=1;exitY=0.57;exitDx=0;exitDy=0;exitPerimeter=0;" parent="1" source="79" target="4" edge="1">
                    <mxGeometry relative="1" as="geometry"/>
                </mxCell>
                <mxCell id="79" value="" style="verticalLabelPosition=bottom;shadow=0;dashed=0;align=center;html=1;verticalAlign=top;shape=mxgraph.electrical.opto_electronics.led_2;pointerEvents=1;" parent="1" vertex="1">
                    <mxGeometry x="40" y="962" width="80" height="40" as="geometry"/>
                </mxCell>
                <mxCell id="220" style="edgeStyle=none;rounded=0;html=1;entryX=0;entryY=0.5;entryDx=0;entryDy=0;entryPerimeter=0;endArrow=none;endFill=0;strokeColor=#000000;exitX=1;exitY=0.57;exitDx=0;exitDy=0;exitPerimeter=0;" parent="1" source="87" target="88" edge="1">
                    <mxGeometry relative="1" as="geometry"/>
                </mxCell>
                <mxCell id="87" value="" style="verticalLabelPosition=bottom;shadow=0;dashed=0;align=center;html=1;verticalAlign=top;shape=mxgraph.electrical.opto_electronics.led_2;pointerEvents=1;rotation=0;" parent="1" vertex="1">
                    <mxGeometry x="40" y="1042" width="80" height="40" as="geometry"/>
                </mxCell>
                <mxCell id="223" style="edgeStyle=none;rounded=0;html=1;endArrow=none;endFill=0;strokeColor=#000000;entryX=0;entryY=0.5;entryDx=0;entryDy=0;" parent="1" source="88" target="5" edge="1">
                    <mxGeometry relative="1" as="geometry">
                        <mxPoint x="730" y="550" as="targetPoint"/>
                        <Array as="points">
                            <mxPoint x="640" y="1062"/>
                            <mxPoint x="640" y="520"/>
                            <mxPoint x="742" y="520"/>
                        </Array>
                    </mxGeometry>
                </mxCell>
                <mxCell id="88" value="" style="pointerEvents=1;verticalLabelPosition=bottom;shadow=0;dashed=0;align=center;html=1;verticalAlign=top;shape=mxgraph.electrical.resistors.resistor_2;" parent="1" vertex="1">
                    <mxGeometry x="205" y="1052" width="70" height="20" as="geometry"/>
                </mxCell>
                <mxCell id="97" value="&lt;span style=&quot;color: rgb(52 , 73 , 94) ; font-family: , sans-serif ; font-size: 15px ; text-align: left ; background-color: rgb(244 , 245 , 246)&quot;&gt;220 Î©&lt;/span&gt;" style="text;html=1;align=center;verticalAlign=middle;whiteSpace=wrap;rounded=0;" parent="1" vertex="1">
                    <mxGeometry x="220" y="1082" width="50" height="20" as="geometry"/>
                </mxCell>
                <mxCell id="105" value="&lt;div style=&quot;text-align: left&quot;&gt;&lt;font color=&quot;#34495e&quot;&gt;&lt;span style=&quot;font-size: 15px ; background-color: rgb(244 , 245 , 246)&quot;&gt;Carry Out&lt;/span&gt;&lt;/font&gt;&lt;/div&gt;" style="text;html=1;strokeColor=none;fillColor=none;align=center;verticalAlign=middle;whiteSpace=wrap;rounded=0;" parent="1" vertex="1">
                    <mxGeometry x="40" y="1169" width="80" height="26" as="geometry"/>
                </mxCell>
                <mxCell id="143" style="edgeStyle=none;rounded=0;html=1;entryX=0;entryY=0.25;entryDx=0;entryDy=0;entryPerimeter=0;endArrow=none;endFill=0;exitX=1;exitY=0.5;exitDx=0;exitDy=0;exitPerimeter=0;" parent="1" source="109" target="141" edge="1">
                    <mxGeometry relative="1" as="geometry">
                        <Array as="points">
                            <mxPoint x="40" y="380"/>
                            <mxPoint x="40" y="390"/>
                        </Array>
                    </mxGeometry>
                </mxCell>
                <mxCell id="144" style="edgeStyle=none;rounded=0;html=1;entryX=0;entryY=0.25;entryDx=0;entryDy=0;entryPerimeter=0;endArrow=none;endFill=0;exitX=1;exitY=0.5;exitDx=0;exitDy=0;exitPerimeter=0;" parent="1" source="109" target="142" edge="1">
                    <mxGeometry relative="1" as="geometry">
                        <Array as="points">
                            <mxPoint x="40" y="380"/>
                            <mxPoint x="40" y="310"/>
                        </Array>
                    </mxGeometry>
                </mxCell>
                <mxCell id="109" value="" style="verticalLabelPosition=bottom;shadow=0;dashed=0;align=center;html=1;verticalAlign=top;shape=mxgraph.electrical.logic_gates.logic_gate;operation=xor;rotation=-180;" parent="1" vertex="1">
                    <mxGeometry x="80" y="360" width="80" height="40" as="geometry"/>
                </mxCell>
                <mxCell id="148" style="edgeStyle=none;rounded=0;html=1;entryX=0;entryY=0.25;entryDx=0;entryDy=0;entryPerimeter=0;endArrow=none;endFill=0;exitX=1;exitY=0.5;exitDx=0;exitDy=0;exitPerimeter=0;" parent="1" source="110" target="111" edge="1">
                    <mxGeometry relative="1" as="geometry">
                        <Array as="points">
                            <mxPoint x="40" y="500"/>
                            <mxPoint x="40" y="510"/>
                        </Array>
                    </mxGeometry>
                </mxCell>
                <mxCell id="110" value="" style="verticalLabelPosition=bottom;shadow=0;dashed=0;align=center;html=1;verticalAlign=top;shape=mxgraph.electrical.logic_gates.logic_gate;operation=and;rotation=-180;" parent="1" vertex="1">
                    <mxGeometry x="80" y="480" width="80" height="40" as="geometry"/>
                </mxCell>
                <mxCell id="204" style="edgeStyle=none;rounded=0;html=1;endArrow=none;endFill=0;strokeColor=#80FF00;exitX=1;exitY=0.5;exitDx=0;exitDy=0;exitPerimeter=0;entryX=0;entryY=0.75;entryDx=0;entryDy=0;entryPerimeter=0;" parent="1" source="111" target="202" edge="1">
                    <mxGeometry relative="1" as="geometry">
                        <mxPoint x="-80" y="640" as="targetPoint"/>
                        <Array as="points">
                            <mxPoint x="-80" y="500"/>
                            <mxPoint x="-80" y="600"/>
                            <mxPoint x="60" y="600"/>
                            <mxPoint x="60" y="650"/>
                        </Array>
                    </mxGeometry>
                </mxCell>
                <mxCell id="205" style="edgeStyle=none;rounded=0;html=1;endArrow=none;endFill=0;strokeColor=#80FF00;entryX=0;entryY=0.75;entryDx=0;entryDy=0;entryPerimeter=0;" parent="1" source="111" target="201" edge="1">
                    <mxGeometry relative="1" as="geometry">
                        <Array as="points">
                            <mxPoint x="-80" y="500"/>
                            <mxPoint x="-80" y="600"/>
                            <mxPoint x="60" y="600"/>
                            <mxPoint x="60" y="650"/>
                            <mxPoint x="60" y="770"/>
                        </Array>
                        <mxPoint x="170" y="710" as="targetPoint"/>
                    </mxGeometry>
                </mxCell>
                <mxCell id="111" value="" style="verticalLabelPosition=bottom;shadow=0;dashed=0;align=center;html=1;verticalAlign=top;shape=mxgraph.electrical.logic_gates.logic_gate;operation=or;rotation=-180;" parent="1" vertex="1">
                    <mxGeometry x="-80" y="480" width="80" height="40" as="geometry"/>
                </mxCell>
                <mxCell id="131" value="&lt;div style=&quot;text-align: left&quot;&gt;&lt;font color=&quot;#34495e&quot;&gt;&lt;span style=&quot;font-size: 15px ; background-color: rgb(244 , 245 , 246)&quot;&gt;Input A1&lt;/span&gt;&lt;/font&gt;&lt;/div&gt;" style="text;html=1;strokeColor=none;fillColor=none;align=center;verticalAlign=middle;whiteSpace=wrap;rounded=0;" parent="1" vertex="1">
                    <mxGeometry x="423.25" y="373.5" width="66.75" height="26" as="geometry"/>
                </mxCell>
                <mxCell id="147" style="edgeStyle=none;rounded=0;html=1;endArrow=none;endFill=0;exitX=1;exitY=0.5;exitDx=0;exitDy=0;exitPerimeter=0;entryX=0;entryY=0.75;entryDx=0;entryDy=0;entryPerimeter=0;" parent="1" source="141" target="111" edge="1">
                    <mxGeometry relative="1" as="geometry">
                        <Array as="points">
                            <mxPoint x="-80" y="440"/>
                            <mxPoint y="440"/>
                        </Array>
                        <mxPoint x="30" y="470" as="targetPoint"/>
                    </mxGeometry>
                </mxCell>
                <mxCell id="141" value="" style="verticalLabelPosition=bottom;shadow=0;dashed=0;align=center;html=1;verticalAlign=top;shape=mxgraph.electrical.logic_gates.logic_gate;operation=and;rotation=-180;" parent="1" vertex="1">
                    <mxGeometry x="-80" y="359.5" width="80" height="40" as="geometry"/>
                </mxCell>
                <mxCell id="213" style="edgeStyle=none;rounded=0;html=1;endArrow=none;endFill=0;strokeColor=none;exitX=1;exitY=0.5;exitDx=0;exitDy=0;exitPerimeter=0;" parent="1" source="142" edge="1">
                    <mxGeometry relative="1" as="geometry">
                        <mxPoint x="-390" y="579.9999999999998" as="targetPoint"/>
                        <Array as="points">
                            <mxPoint x="-140" y="100"/>
                        </Array>
                    </mxGeometry>
                </mxCell>
                <mxCell id="214" style="edgeStyle=none;rounded=0;html=1;endArrow=none;endFill=0;strokeColor=#000000;entryX=0;entryY=0.57;entryDx=0;entryDy=0;entryPerimeter=0;exitX=1;exitY=0.5;exitDx=0;exitDy=0;exitPerimeter=0;" parent="1" source="142" target="79" edge="1">
                    <mxGeometry relative="1" as="geometry">
                        <mxPoint x="-50" y="330.0000000000001" as="targetPoint"/>
                        <Array as="points">
                            <mxPoint x="-160" y="300"/>
                            <mxPoint x="-160" y="985"/>
                        </Array>
                    </mxGeometry>
                </mxCell>
                <mxCell id="142" value="" style="verticalLabelPosition=bottom;shadow=0;dashed=0;align=center;html=1;verticalAlign=top;shape=mxgraph.electrical.logic_gates.logic_gate;operation=xor;rotation=-180;" parent="1" vertex="1">
                    <mxGeometry x="-80" y="280" width="80" height="40" as="geometry"/>
                </mxCell>
                <mxCell id="186" style="edgeStyle=none;html=1;entryX=0;entryY=0.75;entryDx=0;entryDy=0;entryPerimeter=0;exitX=0;exitY=0.885;exitDx=0;exitDy=0;exitPerimeter=0;rounded=0;endArrow=none;endFill=0;strokeColor=#3333FF;" parent="1" source="188" target="197" edge="1">
                    <mxGeometry relative="1" as="geometry">
                        <Array as="points">
                            <mxPoint x="220" y="803"/>
                            <mxPoint x="220" y="890"/>
                        </Array>
                    </mxGeometry>
                </mxCell>
                <mxCell id="187" style="edgeStyle=none;html=1;entryX=0;entryY=0.75;entryDx=0;entryDy=0;entryPerimeter=0;rounded=0;endArrow=none;endFill=0;exitX=0;exitY=0.885;exitDx=0;exitDy=0;exitPerimeter=0;strokeColor=#0000FF;" parent="1" source="188" target="195" edge="1">
                    <mxGeometry relative="1" as="geometry">
                        <Array as="points">
                            <mxPoint x="220" y="803"/>
                            <mxPoint x="220" y="770"/>
                        </Array>
                    </mxGeometry>
                </mxCell>
                <mxCell id="188" value="" style="pointerEvents=1;verticalLabelPosition=bottom;shadow=0;dashed=0;align=center;html=1;verticalAlign=top;shape=mxgraph.electrical.electro-mechanical.2-way_switch;direction=west;rotation=-180;" parent="1" vertex="1">
                    <mxGeometry x="404.75" y="779.5" width="75" height="26" as="geometry"/>
                </mxCell>
                <mxCell id="237" style="edgeStyle=none;rounded=0;html=1;entryX=0;entryY=0.25;entryDx=0;entryDy=0;entryPerimeter=0;endArrow=none;endFill=0;strokeColor=#00CC00;exitX=0;exitY=0.885;exitDx=0;exitDy=0;exitPerimeter=0;" edge="1" parent="1" source="191" target="226">
                    <mxGeometry relative="1" as="geometry">
                        <Array as="points">
                            <mxPoint x="380" y="883"/>
                            <mxPoint x="380" y="910"/>
                        </Array>
                    </mxGeometry>
                </mxCell>
                <mxCell id="191" value="" style="pointerEvents=1;verticalLabelPosition=bottom;shadow=0;dashed=0;align=center;html=1;verticalAlign=top;shape=mxgraph.electrical.electro-mechanical.2-way_switch;direction=west;rotation=-180;" parent="1" vertex="1">
                    <mxGeometry x="404.75" y="860" width="75" height="26" as="geometry"/>
                </mxCell>
                <mxCell id="192" value="&lt;div style=&quot;text-align: left&quot;&gt;&lt;font color=&quot;#34495e&quot;&gt;&lt;span style=&quot;font-size: 15px ; background-color: rgb(244 , 245 , 246)&quot;&gt;Input B2&lt;/span&gt;&lt;/font&gt;&lt;/div&gt;" style="text;html=1;strokeColor=none;fillColor=none;align=center;verticalAlign=middle;whiteSpace=wrap;rounded=0;" parent="1" vertex="1">
                    <mxGeometry x="423.25" y="834" width="66.75" height="26" as="geometry"/>
                </mxCell>
                <mxCell id="193" style="edgeStyle=none;rounded=0;html=1;entryX=0;entryY=0.25;entryDx=0;entryDy=0;entryPerimeter=0;endArrow=none;endFill=0;exitX=1;exitY=0.5;exitDx=0;exitDy=0;exitPerimeter=0;" parent="1" source="195" target="201" edge="1">
                    <mxGeometry relative="1" as="geometry">
                        <Array as="points">
                            <mxPoint x="40" y="780"/>
                            <mxPoint x="40" y="790"/>
                        </Array>
                    </mxGeometry>
                </mxCell>
                <mxCell id="194" style="edgeStyle=none;rounded=0;html=1;entryX=0;entryY=0.25;entryDx=0;entryDy=0;entryPerimeter=0;endArrow=none;endFill=0;exitX=1;exitY=0.5;exitDx=0;exitDy=0;exitPerimeter=0;" parent="1" source="195" target="202" edge="1">
                    <mxGeometry relative="1" as="geometry">
                        <Array as="points">
                            <mxPoint x="40" y="780"/>
                            <mxPoint x="40" y="670"/>
                        </Array>
                    </mxGeometry>
                </mxCell>
                <mxCell id="195" value="" style="verticalLabelPosition=bottom;shadow=0;dashed=0;align=center;html=1;verticalAlign=top;shape=mxgraph.electrical.logic_gates.logic_gate;operation=xor;rotation=-180;" parent="1" vertex="1">
                    <mxGeometry x="80" y="760" width="80" height="40" as="geometry"/>
                </mxCell>
                <mxCell id="196" style="edgeStyle=none;rounded=0;html=1;endArrow=none;endFill=0;exitX=1;exitY=0.5;exitDx=0;exitDy=0;exitPerimeter=0;entryX=0;entryY=0.25;entryDx=0;entryDy=0;entryPerimeter=0;" parent="1" source="197" target="198" edge="1">
                    <mxGeometry relative="1" as="geometry">
                        <Array as="points">
                            <mxPoint x="40" y="900"/>
                            <mxPoint x="40" y="910"/>
                        </Array>
                        <mxPoint x="10" y="900" as="targetPoint"/>
                    </mxGeometry>
                </mxCell>
                <mxCell id="197" value="" style="verticalLabelPosition=bottom;shadow=0;dashed=0;align=center;html=1;verticalAlign=top;shape=mxgraph.electrical.logic_gates.logic_gate;operation=and;rotation=-180;" parent="1" vertex="1">
                    <mxGeometry x="80" y="880" width="80" height="40" as="geometry"/>
                </mxCell>
                <mxCell id="218" style="edgeStyle=none;rounded=0;html=1;entryX=0;entryY=0.57;entryDx=0;entryDy=0;entryPerimeter=0;endArrow=none;endFill=0;strokeColor=#000000;exitX=1;exitY=0.5;exitDx=0;exitDy=0;exitPerimeter=0;" parent="1" source="198" target="211" edge="1">
                    <mxGeometry relative="1" as="geometry">
                        <Array as="points">
                            <mxPoint x="-80" y="1145"/>
                        </Array>
                    </mxGeometry>
                </mxCell>
                <mxCell id="198" value="" style="verticalLabelPosition=bottom;shadow=0;dashed=0;align=center;html=1;verticalAlign=top;shape=mxgraph.electrical.logic_gates.logic_gate;operation=or;rotation=-180;" parent="1" vertex="1">
                    <mxGeometry x="-80" y="880" width="80" height="40" as="geometry"/>
                </mxCell>
                <mxCell id="199" value="&lt;div style=&quot;text-align: left&quot;&gt;&lt;font color=&quot;#34495e&quot;&gt;&lt;span style=&quot;font-size: 15px ; background-color: rgb(244 , 245 , 246)&quot;&gt;Input A2&lt;/span&gt;&lt;/font&gt;&lt;/div&gt;" style="text;html=1;strokeColor=none;fillColor=none;align=center;verticalAlign=middle;whiteSpace=wrap;rounded=0;" parent="1" vertex="1">
                    <mxGeometry x="423.25" y="753.5" width="66.75" height="26" as="geometry"/>
                </mxCell>
                <mxCell id="200" style="edgeStyle=none;rounded=0;html=1;entryX=0;entryY=0.75;entryDx=0;entryDy=0;entryPerimeter=0;endArrow=none;endFill=0;exitX=1;exitY=0.5;exitDx=0;exitDy=0;exitPerimeter=0;" parent="1" source="201" target="198" edge="1">
                    <mxGeometry relative="1" as="geometry">
                        <Array as="points">
                            <mxPoint x="-80" y="840"/>
                            <mxPoint y="840"/>
                        </Array>
                    </mxGeometry>
                </mxCell>
                <mxCell id="201" value="" style="verticalLabelPosition=bottom;shadow=0;dashed=0;align=center;html=1;verticalAlign=top;shape=mxgraph.electrical.logic_gates.logic_gate;operation=and;rotation=-180;" parent="1" vertex="1">
                    <mxGeometry x="-80" y="760" width="80" height="40" as="geometry"/>
                </mxCell>
                <mxCell id="217" style="edgeStyle=none;rounded=0;html=1;entryX=0;entryY=0.57;entryDx=0;entryDy=0;entryPerimeter=0;endArrow=none;endFill=0;strokeColor=#000000;exitX=1;exitY=0.5;exitDx=0;exitDy=0;exitPerimeter=0;" parent="1" source="202" target="87" edge="1">
                    <mxGeometry relative="1" as="geometry">
                        <Array as="points">
                            <mxPoint x="-120" y="660"/>
                            <mxPoint x="-120" y="1065"/>
                        </Array>
                    </mxGeometry>
                </mxCell>
                <mxCell id="202" value="" style="verticalLabelPosition=bottom;shadow=0;dashed=0;align=center;html=1;verticalAlign=top;shape=mxgraph.electrical.logic_gates.logic_gate;operation=xor;rotation=-180;" parent="1" vertex="1">
                    <mxGeometry x="-80" y="640" width="80" height="40" as="geometry"/>
                </mxCell>
                <mxCell id="224" style="edgeStyle=none;rounded=0;html=1;endArrow=none;endFill=0;strokeColor=#000000;entryX=0;entryY=0.5;entryDx=0;entryDy=0;exitX=1;exitY=0.5;exitDx=0;exitDy=0;exitPerimeter=0;" parent="1" source="210" target="5" edge="1">
                    <mxGeometry relative="1" as="geometry">
                        <mxPoint x="790" y="750" as="targetPoint"/>
                        <Array as="points">
                            <mxPoint x="640" y="1142"/>
                            <mxPoint x="640" y="520"/>
                            <mxPoint x="742" y="520"/>
                        </Array>
                    </mxGeometry>
                </mxCell>
                <mxCell id="210" value="" style="pointerEvents=1;verticalLabelPosition=bottom;shadow=0;dashed=0;align=center;html=1;verticalAlign=top;shape=mxgraph.electrical.resistors.resistor_2;" parent="1" vertex="1">
                    <mxGeometry x="210" y="1132" width="70" height="20" as="geometry"/>
                </mxCell>
                <mxCell id="221" style="edgeStyle=none;rounded=0;html=1;entryX=0;entryY=0.5;entryDx=0;entryDy=0;entryPerimeter=0;endArrow=none;endFill=0;strokeColor=#000000;exitX=1;exitY=0.57;exitDx=0;exitDy=0;exitPerimeter=0;" parent="1" source="211" target="210" edge="1">
                    <mxGeometry relative="1" as="geometry"/>
                </mxCell>
                <mxCell id="211" value="" style="verticalLabelPosition=bottom;shadow=0;dashed=0;align=center;html=1;verticalAlign=top;shape=mxgraph.electrical.opto_electronics.led_2;pointerEvents=1;" parent="1" vertex="1">
                    <mxGeometry x="40" y="1122" width="80" height="40" as="geometry"/>
                </mxCell>
                <mxCell id="212" value="&lt;span style=&quot;color: rgb(52 , 73 , 94) ; font-family: , sans-serif ; font-size: 15px ; text-align: left ; background-color: rgb(244 , 245 , 246)&quot;&gt;220 Î©&lt;/span&gt;" style="text;html=1;align=center;verticalAlign=middle;whiteSpace=wrap;rounded=0;" parent="1" vertex="1">
                    <mxGeometry x="220" y="1162" width="50" height="20" as="geometry"/>
                </mxCell>
                <mxCell id="215" value="&lt;div style=&quot;text-align: left&quot;&gt;&lt;font color=&quot;#34495e&quot;&gt;&lt;span style=&quot;font-size: 15px ; background-color: rgb(244 , 245 , 246)&quot;&gt;Sum2&lt;/span&gt;&lt;/font&gt;&lt;/div&gt;" style="text;html=1;strokeColor=none;fillColor=none;align=center;verticalAlign=middle;whiteSpace=wrap;rounded=0;" parent="1" vertex="1">
                    <mxGeometry x="49" y="1082" width="62" height="20" as="geometry"/>
                </mxCell>
                <mxCell id="235" style="edgeStyle=none;rounded=0;html=1;entryX=0;entryY=0.25;entryDx=0;entryDy=0;entryPerimeter=0;endArrow=none;endFill=0;strokeColor=#00CC00;exitX=1;exitY=0.5;exitDx=0;exitDy=0;exitPerimeter=0;" edge="1" parent="1" source="225" target="109">
                    <mxGeometry relative="1" as="geometry">
                        <Array as="points">
                            <mxPoint x="200" y="500"/>
                            <mxPoint x="200" y="390"/>
                        </Array>
                    </mxGeometry>
                </mxCell>
                <mxCell id="236" style="edgeStyle=none;rounded=0;html=1;entryX=0;entryY=0.25;entryDx=0;entryDy=0;entryPerimeter=0;endArrow=none;endFill=0;strokeColor=#00CC00;exitX=1;exitY=0.5;exitDx=0;exitDy=0;exitPerimeter=0;" edge="1" parent="1" source="225" target="110">
                    <mxGeometry relative="1" as="geometry">
                        <Array as="points">
                            <mxPoint x="200" y="500"/>
                            <mxPoint x="200" y="510"/>
                        </Array>
                    </mxGeometry>
                </mxCell>
                <mxCell id="225" value="" style="verticalLabelPosition=bottom;shadow=0;dashed=0;align=center;html=1;verticalAlign=top;shape=mxgraph.electrical.logic_gates.logic_gate;operation=xor;rotation=-180;" vertex="1" parent="1">
                    <mxGeometry x="240" y="480" width="80" height="40" as="geometry"/>
                </mxCell>
                <mxCell id="238" style="edgeStyle=none;rounded=0;html=1;entryX=0;entryY=0.25;entryDx=0;entryDy=0;entryPerimeter=0;endArrow=none;endFill=0;strokeColor=#00CC00;exitX=1;exitY=0.5;exitDx=0;exitDy=0;exitPerimeter=0;" edge="1" parent="1" source="226" target="195">
                    <mxGeometry relative="1" as="geometry">
                        <Array as="points">
                            <mxPoint x="200" y="900"/>
                            <mxPoint x="200" y="790"/>
                        </Array>
                    </mxGeometry>
                </mxCell>
                <mxCell id="239" style="edgeStyle=none;rounded=0;html=1;entryX=0;entryY=0.25;entryDx=0;entryDy=0;entryPerimeter=0;endArrow=none;endFill=0;strokeColor=#00CC00;exitX=1;exitY=0.5;exitDx=0;exitDy=0;exitPerimeter=0;" edge="1" parent="1" source="226" target="197">
                    <mxGeometry relative="1" as="geometry">
                        <Array as="points">
                            <mxPoint x="200" y="900"/>
                            <mxPoint x="200" y="910"/>
                        </Array>
                    </mxGeometry>
                </mxCell>
                <mxCell id="226" value="" style="verticalLabelPosition=bottom;shadow=0;dashed=0;align=center;html=1;verticalAlign=top;shape=mxgraph.electrical.logic_gates.logic_gate;operation=xor;rotation=-180;" vertex="1" parent="1">
                    <mxGeometry x="240" y="880" width="80" height="40" as="geometry"/>
                </mxCell>
                <mxCell id="231" style="edgeStyle=none;rounded=0;html=1;endArrow=none;endFill=0;strokeColor=#FF00FF;exitX=0;exitY=0.885;exitDx=0;exitDy=0;exitPerimeter=0;entryX=0;entryY=0.75;entryDx=0;entryDy=0;entryPerimeter=0;" edge="1" parent="1" source="227" target="141">
                    <mxGeometry relative="1" as="geometry">
                        <mxPoint x="40" y="340" as="targetPoint"/>
                        <Array as="points">
                            <mxPoint x="20" y="223"/>
                            <mxPoint x="20" y="370"/>
                        </Array>
                    </mxGeometry>
                </mxCell>
                <mxCell id="232" style="edgeStyle=none;rounded=0;html=1;entryX=0;entryY=0.75;entryDx=0;entryDy=0;entryPerimeter=0;endArrow=none;endFill=0;strokeColor=#FF00FF;exitX=0;exitY=0.885;exitDx=0;exitDy=0;exitPerimeter=0;" edge="1" parent="1" source="227" target="142">
                    <mxGeometry relative="1" as="geometry">
                        <Array as="points">
                            <mxPoint x="20" y="223"/>
                            <mxPoint x="20" y="290"/>
                        </Array>
                    </mxGeometry>
                </mxCell>
                <mxCell id="233" style="edgeStyle=none;rounded=0;html=1;entryX=0;entryY=0.75;entryDx=0;entryDy=0;entryPerimeter=0;endArrow=none;endFill=0;strokeColor=#FF00FF;exitX=0;exitY=0.885;exitDx=0;exitDy=0;exitPerimeter=0;" edge="1" parent="1" source="227" target="225">
                    <mxGeometry relative="1" as="geometry">
                        <Array as="points">
                            <mxPoint x="360" y="223"/>
                            <mxPoint x="360" y="490"/>
                        </Array>
                    </mxGeometry>
                </mxCell>
                <mxCell id="234" style="edgeStyle=none;rounded=0;html=1;endArrow=none;endFill=0;strokeColor=#FF00FF;entryX=0;entryY=0.75;entryDx=0;entryDy=0;entryPerimeter=0;exitX=0;exitY=0.885;exitDx=0;exitDy=0;exitPerimeter=0;" edge="1" parent="1" source="227" target="226">
                    <mxGeometry relative="1" as="geometry">
                        <mxPoint x="20" y="210" as="targetPoint"/>
                        <Array as="points">
                            <mxPoint x="360" y="223"/>
                            <mxPoint x="360" y="890"/>
                        </Array>
                    </mxGeometry>
                </mxCell>
                <mxCell id="227" value="" style="pointerEvents=1;verticalLabelPosition=bottom;shadow=0;dashed=0;align=center;html=1;verticalAlign=top;shape=mxgraph.electrical.electro-mechanical.2-way_switch;direction=west;rotation=-180;" vertex="1" parent="1">
                    <mxGeometry x="404.75" y="200" width="75" height="26" as="geometry"/>
                </mxCell>
                <mxCell id="240" value="&lt;div style=&quot;text-align: left&quot;&gt;&lt;font color=&quot;#34495e&quot;&gt;&lt;span style=&quot;font-size: 15px ; background-color: rgb(244 , 245 , 246)&quot;&gt;S&lt;/span&gt;&lt;/font&gt;&lt;/div&gt;" style="text;html=1;strokeColor=none;fillColor=none;align=center;verticalAlign=middle;whiteSpace=wrap;rounded=0;" vertex="1" parent="1">
                    <mxGeometry x="414" y="174" width="66.75" height="26" as="geometry"/>
                </mxCell>
            </root>
        </mxGraphModel>
    </diagram>
</mxfile>